# xmcd
#
# Track frame offsets: 
#        150
#        22128
#        44038
#        66891
#        86286
#        104778
#        126315
#        153421
#        180519
#        201302
#
# Disc length: 2998 seconds
#
# Revision: 0
# Processed by: cddbd v1.5.2PL0 Copyright (c) Steve Scherf et al.
# Submitted via: ExactAudioCopy v0.99pb1
#
DISCID=910bb40a
DTITLE=BillyGoodman&SteveKimock  - Big Red Barn Sessions
DYEAR=2008
DGENRE=Blues
TTITLE0=Johnny Anonymous
TTITLE1=You are with me
TTITLE2=Barbed Wire
TTITLE3=Ghost Town
TTITLE4=Evangeline
TTITLE5=Counting on You
TTITLE6=On the Run
TTITLE7=Shaking Leg
TTITLE8=Thank you that you loved me
TTITLE9=Cowboy
EXTD=
EXTT0=
EXTT1=
EXTT2=
EXTT3=
EXTT4=
EXTT5=
EXTT6=
EXTT7=
EXTT8=
EXTT9=
PLAYORDER=
